<?xml version="1.0" standalone="no"?>
<!DOCTYPE svg PUBLIC "-//W3C//DTD SVG 20010904//EN"
 "http://www.w3.org/TR/2001/REC-SVG-20010904/DTD/svg10.dtd">
<svg version="1.0" xmlns="http://www.w3.org/2000/svg"
 width="700.000000pt" height="700.000000pt" viewBox="0 0 700.000000 700.000000"
 preserveAspectRatio="xMidYMid meet">
<metadata>
Created by potrace 1.11, written by Peter Selinger 2001-2013
</metadata>
<g transform="translate(0.000000,700.000000) scale(0.100000,-0.100000)"
fill="#000000" stroke="none">
<path d="M3233 6550 c-607 -59 -1183 -291 -1653 -666 -109 -87 -377 -355 -464
-464 -283 -354 -497 -797 -597 -1230 -59 -260 -73 -389 -73 -690 0 -301 14
-430 73 -690 100 -433 314 -876 597 -1230 87 -109 355 -377 464 -464 354 -283
797 -497 1230 -597 260 -59 389 -73 690 -73 301 0 430 14 690 73 433 100 876
314 1230 597 109 87 377 355 464 464 283 354 497 797 597 1230 59 260 73 389
73 690 0 235 -4 296 -23 420 -74 481 -229 889 -483 1270 -133 201 -207 290
-387 471 -181 180 -270 254 -471 387 -380 254 -795 412 -1265 482 -160 24
-537 35 -692 20z m1162 -1459 c173 -45 324 -138 467 -290 117 -124 190 -254
235 -421 17 -60 18 -145 18 -1165 0 -1055 -1 -1102 -19 -1149 -42 -108 -140
-176 -255 -176 -82 0 -136 25 -196 92 -84 94 -79 17 -85 1203 -5 974 -6 1053
-23 1095 -45 112 -117 192 -215 238 -49 23 -70 27 -152 27 -85 0 -101 -3 -155
-29 -118 -59 -202 -176 -224 -316 -7 -40 -11 -323 -11 -740 0 -814 -3 -848
-100 -1040 -50 -101 -110 -178 -212 -275 -204 -194 -417 -275 -688 -262 -135
6 -215 25 -326 77 -260 120 -455 343 -541 615 l-28 90 0 1115 0 1115 28 57
c109 221 405 205 498 -28 l24 -59 5 -1055 5 -1055 23 -55 c33 -81 85 -146 152
-189 78 -51 132 -64 232 -59 70 3 93 9 145 37 117 62 191 168 212 301 7 40 11
318 11 735 0 408 4 703 10 754 26 206 115 384 270 542 162 164 310 246 513
285 98 19 279 11 382 -15z"/>
</g>
</svg>
